#!OML:ASF F:\VICON\USERDATA\INSTALL\rory3\rory3.ASF
:FULLY-SPECIFIED
:DEGREES
326
root -0.045455 17.4977 35.4927 -1.73453 2.1507 -2.75829
lowerback 4.45105 -1.52495 1.06232
upperback 0.202373 -1.87951 4.28899
thorax -2.1781 -0.930315 3.94716
lowerneck -15.9876 -2.70541 -9.39216
upperneck 23.7019 -2.28033 3.96656
head 10.3979 -1.42998 2.68122
rclavicle -2.6339e-015 -2.38542e-014
rhumerus -36.0723 -19.5361 -70.3356
rradius 21.2086
rwrist 16.5177
rhand -14.6182 15.1106
rfingers 7.12502
rthumb 11.5329 -14.5521
lclavicle -2.6339e-015 -2.38542e-014
lhumerus -30.5046 1.98894 86.4197
lradius 32.1029
lwrist -13.3171
lhand -13.3909 23.5841
lfingers 7.12502
lthumb 12.7164 53.1769
rfemur -8.5824 2.68339 27.1066
rtibia 21.1227
rfoot -7.17998 -4.82757
rtoes 9.18738
lfemur -9.63373 0.145473 -15.4271
ltibia 63.9706
lfoot 4.67385 -9.25785
ltoes -14.1911
327
root -0.0584727 17.4953 35.6607 -1.64786 1.68695 -3.0757
lowerback 4.57228 -1.30408 1.41521
upperback 0.122179 -1.55699 4.32888
thorax -2.35664 -0.770901 3.77554
lowerneck -16.0491 -2.82521 -9.51477
upperneck 23.9797 -2.42866 4.02661
head 10.5258 -1.50697 2.70672
rclavicle -4.64659e-015 -9.54166e-015
rhumerus -35.3826 -19.0842 -70.7233
rradius 21.3152
rwrist 16.668
rhand -14.5645 15.3283
rfingers 7.12502
rthumb 11.5848 -14.3315
lclavicle -4.64659e-015 -9.54166e-015
lhumerus -30.7032 2.15648 86.5479
lradius 31.5917
lwrist -13.1916
lhand -13.624 23.7058
lfingers 7.12502
lthumb 12.4916 53.3124
rfemur -8.00524 3.07965 27.6141
rtibia 20.9612
rfoot -7.59322 -4.92207
rtoes 9.95048
lfemur -11.2698 1.06475 -14.9816
ltibia 64.5583
lfoot 3.4782 -8.882
ltoes -13.4617
328
root -0.0604259 17.4917 35.8435 -1.57718 1.43577 -3.00157
lowerback 4.57485 -1.12089 1.49202
upperback 0.0196066 -1.30559 4.24781
thorax -2.48119 -0.645428 3.63372
lowerneck -16.0209 -2.89471 -9.49388
upperneck 24.1728 -2.49904 3.8811
head 10.5957 -1.55856 2.64346
rclavicle 1.96673e-014 -1.43125e-014
rhumerus -34.8906 -17.7545 -71.4713
rradius 21.9242
rwrist 15.5053
rhand -14.5765 14.9466
rfingers 7.12502
rthumb 11.5732 -14.7138
lclavicle 1.96673e-014 -1.43125e-014
lhumerus -31.2 2.45862 86.6284
lradius 31.5306
lwrist -13.2817
lhand -13.0159 24.0123
lfingers 7.12502
lthumb 13.0778 53.5823
rfemur -7.27961 2.98249 27.6038
rtibia 20.8549
rfoot -8.34086 -4.7092
rtoes 10.3018
lfemur -12.7419 1.70421 -15.1235
ltibia 64.9246
lfoot 2.02625 -8.16259
ltoes -12.1142
329
root -0.056684 17.4758 36.0295 -1.57408 1.28027 -2.9821
lowerback 4.52786 -0.962467 1.72693
upperback -0.0352406 -1.08429 4.1171
thorax -2.52962 -0.537984 3.35045
lowerneck -15.9644 -2.9226 -9.36808
upperneck 24.3705 -2.54634 3.75038
head 10.6578 -1.58836 2.57131
rclavicle -2.34814e-015 -7.95139e-016
rhumerus -34.4538 -15.9837 -72.4567
rradius 22.6939
rwrist 13.7676
rhand -14.6762 14.8026
rfingers 7.12502
rthumb 11.4771 -14.8632
lclavicle -2.34814e-015 -7.95139e-016
lhumerus -31.872 2.76599 86.6001
lradius 31.7435
lwrist -13.6087
lhand -12.0641 24.6544
lfingers 7.12502
lthumb 13.9952 54.1633
rfemur -6.45663 2.66618 27.6118
rtibia 20.8318
rfoot -9.16481 -4.41351
rtoes 10.7997
lfemur -14.0606 2.2115 -15.266
ltibia 65.168
lfoot 0.231841 -7.4562
ltoes -12.3299
330
root -0.0662868 17.4483 36.2064 -1.73139 0.881565 -3.7819
lowerback 4.89617 -0.809979 2.55419
upperback -0.147019 -0.807315 4.25556
thorax -2.87466 -0.409352 3.01996
lowerneck -15.5962 -2.82279 -9.29446
upperneck 24.4617 -2.46585 3.75353
head 10.6121 -1.54917 2.57456
rclavicle 9.75287e-016 1.43125e-014
rhumerus -33.9812 -15.0237 -72.9934
rradius 22.9802
rwrist 13.1235
rhand -14.5899 14.8251
rfingers 7.12502
rthumb 11.5602 -14.8361
lclavicle 9.75287e-016 1.43125e-014
lhumerus -32.7529 3.08358 86.5313
lradius 31.8825
lwrist -13.5234
lhand -12.0023 24.8117
lfingers 7.12502
lthumb 14.0548 54.3165
rfemur -5.66602 2.95677 28.6446
rtibia 21.008
rfoot -9.83388 -4.5722
rtoes 10.6976
lfemur -15.3131 3.03673 -14.3203
ltibia 65.3445
lfoot -1.58486 -7.0451
ltoes -12.4798
